<?xml version="1.0" encoding="iso-8859-1"?>
<!-- Uploaded to: SVG Repo, www.svgrepo.com, Generator: SVG Repo Mixer Tools -->
<svg height="800px" width="800px" version="1.1" id="Layer_1" xmlns="http://www.w3.org/2000/svg" xmlns:xlink="http://www.w3.org/1999/xlink" 
	 viewBox="0 0 511.998 511.998" xml:space="preserve">
<g>
	<path style="fill:#6DDAE1;" d="M381.127,116.889c13-58.589-8.997-98.435-43.174-106.018s-72.12,19.966-85.12,78.556
		c-10.298,46.412-21.551,180.732-21.551,180.732l92.931,19.616C324.214,289.774,370.828,163.301,381.127,116.889z"/>
	<path style="fill:#6DDAE1;" d="M309.393,324.091l-83.694-18.57l-7.847,35.361c-5.416,24.412,9.982,48.594,34.394,54.01
		c10.426,2.314,20.811,0.83,29.71-3.532"/>
</g>
<g>
	<path style="fill:#4FC4D3;" d="M335.466,10.4c-33.512-5.745-69.946,21.854-82.632,79.027
		c-10.298,46.412-21.551,180.732-21.551,180.732l17.135,3.617c5.072-30.752,18.568-108.856,36.13-181.439
		C296.165,44.316,317.526,21.368,335.466,10.4z"/>
	<path style="fill:#4FC4D3;" d="M217.854,340.882c-5.416,24.412,9.982,48.594,34.394,54.01c10.426,2.314,20.811,0.83,29.71-3.532
		l0.489-1.201l-22.191-7.965c-20.758-7.451-32.238-29.669-26.305-50.912l6.295-22.536l-14.545-3.227L217.854,340.882z"/>
</g>
<path style="fill:#E9E9E9;" d="M393.212,285.047c-61.167,0-110.929,49.762-110.929,110.929s49.762,110.929,110.929,110.929
	s110.929-49.762,110.929-110.929S454.379,285.047,393.212,285.047z"/>
<path style="fill:#D3D2D2;" d="M419.471,489.221c-61.167,0-110.929-49.762-110.929-110.929c0-32.609,14.146-61.974,36.619-82.289
	c-37.171,17.938-62.878,56.01-62.878,99.973c0,61.167,49.762,110.929,110.929,110.929c28.557,0,54.627-10.85,74.31-28.64
	C452.976,485.284,436.675,489.221,419.471,489.221z"/>
<path style="fill:#C4DF64;" d="M446.162,390.465l-70.583-47.055c-4.798-3.2-11.43,0.362-11.43,6.117v101.953
	c0,5.983,7.122,9.495,11.866,5.803l70.583-54.897C450.494,399.357,450.267,393.202,446.162,390.465z"/>
<g>
	<path style="fill:#6DDAE1;" d="M81.503,416.764l7.74,35.385c5.343,24.428,29.478,39.901,53.906,34.557s39.901-29.478,34.557-53.906
		l-7.74-35.385L81.503,416.764z"/>
	<path style="fill:#6DDAE1;" d="M39.231,301.102c14.232,43.861,32.027,84.702,32.027,84.702l89.407-20.221
		c0,0-9.352-134.465-18.993-181.018c-12.169-58.767-48.572-86.088-82.854-78.988S1.231,153.364,13.401,212.132
		c2.851,13.767,8.778,34.578,15.713,57.065"/>
</g>
<g>
	<path style="fill:#4FC4D3;" d="M144.925,460.845c-19.61,0.463-37.115-12.238-42.768-31.022c-1.724-5.731-3.372-11.212-4.959-16.493
		l-15.695,3.433l7.74,35.385c5.343,24.428,29.478,39.901,53.906,34.557c14.906-3.26,26.466-13.523,32.008-26.574L144.925,460.845z"
		/>
	<path style="fill:#4FC4D3;" d="M66.914,104.565c-2.703,0.135-5.406,0.455-8.096,1.012c-34.28,7.099-57.588,47.787-45.418,106.554
		c2.851,13.767,8.778,34.578,15.713,57.065l10.117,31.906c14.232,43.861,32.027,84.702,32.027,84.702l16.561-3.746
		c-26.721-89.3-30.168-102.838-47.77-164.927C24.59,162.598,51.237,122.421,66.914,104.565z"/>
</g>
<path d="M229.53,277.333l92.933,19.615c0.589,0.125,1.176,0.185,1.758,0.185c3.492,0,6.712-2.164,7.961-5.554
	c1.911-5.187,46.931-127.545,57.235-173.982C404.69,48.752,374.4,9.131,339.792,1.451c-19.98-4.432-40.536,1.364-57.885,16.322
	c-17.897,15.432-30.817,39.181-37.363,68.683c-10.305,46.437-21.261,176.355-21.722,181.863
	C222.465,272.583,225.34,276.449,229.53,277.333z M261.122,90.134c5.747-25.904,16.768-46.479,31.873-59.502
	c13.189-11.371,28.505-15.854,43.119-12.605c32.549,7.222,47.651,46.654,36.725,95.89c-8.689,39.155-44.252,137.926-54.071,164.899
	l-78.38-16.544C242.919,233.45,252.449,129.215,261.122,90.134z"/>
<path d="M178.26,394.468c-1.002-4.58-5.52-7.478-10.108-6.48l-88.463,19.35c-2.199,0.482-4.118,1.816-5.334,3.712
	c-1.215,1.896-1.628,4.196-1.147,6.395l7.74,35.385c3.069,14.03,11.418,26.024,23.509,33.776c8.767,5.621,18.741,8.521,28.911,8.521
	c3.854,0,7.739-0.417,11.594-1.26c28.962-6.335,47.371-35.052,41.037-64.015L178.26,394.468z M141.335,477.28
	c-19.812,4.33-39.465-8.262-43.798-28.078l-5.926-27.092l71.875-15.723l5.926,27.092
	C173.746,453.298,161.151,472.946,141.335,477.28z"/>
<path d="M162.537,372.732c4.085-0.924,6.887-4.691,6.596-8.87c-0.383-5.514-9.503-135.571-19.149-182.15
	c-6.131-29.603-18.51-53.398-35.8-68.81C97.401,97.939,77.124,91.983,57.097,96.134c-20.04,4.15-36.411,17.865-46.1,38.623
	c-9.995,21.414-12.038,48.373-5.91,77.965c2.614,12.615,7.968,32.077,15.914,57.845c1.382,4.48,6.133,6.99,10.614,5.611
	c4.48-1.382,6.993-6.134,5.611-10.614c-7.789-25.257-13.008-44.194-15.513-56.285c-5.38-25.981-3.766-49.267,4.67-67.34
	c7.365-15.78,19.495-26.143,34.157-29.179c14.632-3.028,29.674,1.521,42.347,12.818c14.55,12.969,25.086,33.571,30.473,59.578
	c8.137,39.298,16.213,144.078,18.312,172.627L76.3,374.831c-5.517-13.162-18.336-44.634-28.993-77.478
	c-1.447-4.46-6.241-6.902-10.694-5.455c-4.46,1.447-6.903,6.236-5.455,10.694c14.194,43.748,32.14,85.061,32.319,85.474
	c1.372,3.147,4.463,5.099,7.78,5.099c0.621,0,1.25-0.069,1.876-0.211L162.537,372.732z"/>
<path d="M494.69,336.261c-2.349-4.057-7.541-5.443-11.6-3.097c-4.058,2.348-5.446,7.541-3.097,11.6
	c8.763,15.15,13.396,32.468,13.396,50.08c0,55.237-44.939,100.176-100.176,100.176s-100.176-44.939-100.176-100.176
	s44.939-100.176,100.176-100.176c24.689,0,48.405,9.058,66.782,25.506c3.495,3.125,8.862,2.829,11.988-0.664
	c3.126-3.494,2.829-8.861-0.664-11.988c-21.494-19.237-49.233-29.832-78.105-29.832c-33.308,0-63.413,13.971-84.765,36.362
	c-0.157,0.165-0.307,0.34-0.463,0.506l-80.445-18.458c-4.584-1.013-9.111,1.872-10.127,6.449l-7.848,35.361
	c-6.421,28.942,11.901,57.714,40.843,64.137c3.828,0.849,7.724,1.269,11.616,1.269c4.069,0,9.739-1.285,14.199-2.445
	c0.009,0.174,0.012,0.35,0.023,0.524c3.41,61.563,54.568,110.603,116.968,110.603c64.599,0,117.155-52.555,117.155-117.155
	C510.367,374.251,504.946,353.993,494.69,336.261z M254.087,385.472c-19.803-4.394-32.339-24.08-27.945-43.883l6.008-27.075
	l64.006,14.807c-10.603,15.656-17.525,33.994-19.503,53.772C269.766,385.633,260.976,387,254.087,385.472z"/>
<path d="M370.755,333.448c-2.606-1.738-5.956-1.899-8.715-0.421c-2.76,1.477-4.484,4.354-4.484,7.484v117.721
	c0,3.242,1.847,6.202,4.76,7.626c1.184,0.58,2.46,0.864,3.729,0.864c1.854,0,3.695-0.607,5.213-1.788l81.499-63.388
	c2.154-1.674,3.372-4.283,3.272-7.01c-0.1-2.727-1.504-5.241-3.775-6.754L370.755,333.448z M374.535,440.874v-84.5l58.5,39.001
	L374.535,440.874z"/>
</svg>